<svg width="92" height="60" viewBox="0 0 92 60" fill="none" xmlns="http://www.w3.org/2000/svg">
<path fill-rule="evenodd" clip-rule="evenodd" d="M58.0001 2H34.0001V26H58.0001V2ZM32.0001 0V28H60.0001V0H32.0001Z" fill="white"/>
<path fill-rule="evenodd" clip-rule="evenodd" d="M46.0001 6.71938L51.6248 11.2191L50.3754 12.7809L46.0001 9.28062L41.6248 12.7809L40.3754 11.2191L46.0001 6.71938Z" fill="white"/>
<path fill-rule="evenodd" clip-rule="evenodd" d="M45.0001 20V9H47.0001V20H45.0001Z" fill="white"/>
<path fill-rule="evenodd" clip-rule="evenodd" d="M34.0001 58L58.0001 58L58.0001 34L34.0001 34L34.0001 58ZM60.0001 60L60.0001 32L32.0001 32L32.0001 60L60.0001 60Z" fill="white"/>
<path fill-rule="evenodd" clip-rule="evenodd" d="M46.0001 53.2806L40.3754 48.7809L41.6248 47.2191L46.0001 50.7194L50.3754 47.2191L51.6248 48.7809L46.0001 53.2806Z" fill="white"/>
<path fill-rule="evenodd" clip-rule="evenodd" d="M47.0001 40L47.0001 51H45.0001L45.0001 40H47.0001Z" fill="white"/>
<path fill-rule="evenodd" clip-rule="evenodd" d="M90.0001 58V34H66.0001V58H90.0001ZM92.0001 32L64.0001 32V60H92.0001V32Z" fill="white"/>
<path fill-rule="evenodd" clip-rule="evenodd" d="M85.2807 46L80.7809 51.6247L79.2192 50.3753L82.7194 46L79.2192 41.6247L80.7809 40.3753L85.2807 46Z" fill="white"/>
<path fill-rule="evenodd" clip-rule="evenodd" d="M72.0001 45H83.0001V47H72.0001V45Z" fill="white"/>
<path fill-rule="evenodd" clip-rule="evenodd" d="M2 34L2 58H26L26 34H2ZM1.22392e-06 60H28L28 32L0 32L1.22392e-06 60Z" fill="white"/>
<path fill-rule="evenodd" clip-rule="evenodd" d="M6.71938 46L11.2191 40.3753L12.7809 41.6247L9.28063 46L12.7809 50.3753L11.2191 51.6247L6.71938 46Z" fill="white"/>
<path fill-rule="evenodd" clip-rule="evenodd" d="M20 47H9V45H20V47Z" fill="white"/>
</svg>
