<svg width="32" height="46" viewBox="0 0 32 46" fill="none" xmlns="http://www.w3.org/2000/svg">
<path fill-rule="evenodd" clip-rule="evenodd" d="M20.7243 33.1431C24.6929 27.48 28 21.0686 28 16C28 9.37258 22.6274 4 16 4C9.37258 4 4 9.37258 4 16C4 21.0686 7.30709 27.48 11.2757 33.1431C12.9542 35.5383 14.639 37.645 16 39.2531C17.361 37.645 19.0458 35.5383 20.7243 33.1431ZM18.6847 42.27C23.2414 36.9529 32 25.4974 32 16C32 7.16344 24.8366 0 16 0C7.16344 0 0 7.16344 0 16C0 25.4974 8.75862 36.9529 13.3153 42.27C14.9174 44.1394 16 45.25 16 45.25C16 45.25 17.0826 44.1394 18.6847 42.27Z" fill="black"/>
<path d="M22 16C22 19.3137 19.3137 22 16 22C12.6863 22 10 19.3137 10 16C10 12.6863 12.6863 10 16 10C19.3137 10 22 12.6863 22 16Z" fill="black"/>
</svg>
