<svg xmlns="http://www.w3.org/2000/svg" viewBox="0 0 887.92 750.6"><defs><style>.cls-1,.cls-2{fill:#fff;}.cls-1,.cls-2,.cls-3{stroke:#1d1d1b;stroke-miterlimit:10;}.cls-1{stroke-width:10px;}.cls-2,.cls-3{stroke-width:2px;}.cls-3,.cls-4{fill:#c6c6c6;}.cls-5{fill:#1d1d1b;}</style></defs><g id="Layer_2" data-name="Layer 2"><g id="Layer_2-2" data-name="Layer 2"><polygon class="cls-1" points="143 281.46 101.81 257.33 92.42 273.58 133.62 297.71 143 281.46"/><rect class="cls-1" x="175.84" y="277.42" width="18.77" height="77.81" transform="translate(-181.33 318.57) rotate(-60)"/><rect class="cls-1" x="152.86" y="353.21" width="18.77" height="55.42" transform="translate(-248.76 330.97) rotate(-60)"/><polygon class="cls-1" points="59.74 332.58 118.31 366.74 127.69 350.48 69.13 316.32 59.74 332.58"/><path class="cls-1" d="M791.17,113.21l-89.58,51.71,38.48,66.64-23.84,13.76a131.5,131.5,0,0,0-92.18-57.49c-11.83-10.21-45.14-35.32-96.43-45.43C473.39,131.72,406.06,132,404.68,132V5H248.14V192.25h0l10,112.55h98.22v43.4A117.49,117.49,0,0,0,272,394.47L67.05,274.29l-5,8.58,18.72-32.42L43.82,229.13l-37,64.06,36.93,21.32L57.36,291,261.61,410.74a116.74,116.74,0,0,0-11.77,34.59l-148-24.6c-25.27,152,77.49,295.78,229.53,321a277.88,277.88,0,0,0,124.53-7.51L445.7,707.33l1.5,3.18L613.85,632l36.43-62.5,18.77-135.42a131.66,131.66,0,0,0,59.39-165.86l24.61-14.2,38.47,66.63L881.09,269Zm-386.53,79h0V168c1.38,0,71.23-.35,112.08,9.76a311.31,311.31,0,0,1,46.89,16.12,131.71,131.71,0,0,0-56.78,38.71H401.06Zm-29.41,156V304.8h19.41l4.11-46.2h90.71a131.79,131.79,0,0,0-.78,117.69L459.62,394.5A117.51,117.51,0,0,0,375.23,348.2ZM436.48,683,397.05,579a117.86,117.86,0,0,0,67.37-49.28l14.83,8.69-6.42,11.11L583.89,613.6ZM623,553.77,508.52,487.68l-19.63,34-15.3-9a117.82,117.82,0,0,0-3.62-102l28.48-17.84a131.69,131.69,0,0,0,139.24,53.19Z"/><circle class="cls-2" cx="365.78" cy="465.84" r="117.67"/><rect class="cls-3" x="244.9" y="445.46" width="273.48" height="19.28" transform="matrix(-0.85, 0.53, -0.53, -0.85, 946.69, 638.05)"/><rect class="cls-2" x="93.93" y="268.31" width="47.57" height="18.77" transform="translate(154.62 -21.65) rotate(30)"/><rect class="cls-2" x="146.32" y="307.29" width="77.81" height="18.77" transform="translate(183.15 -50.19) rotate(30)"/><rect class="cls-2" x="134.53" y="371.88" width="55.42" height="18.77" transform="translate(112.11 792.58) rotate(-150)"/><rect class="cls-2" x="59.91" y="332.32" width="67.62" height="18.77" transform="translate(4.03 684.49) rotate(-150)"/><rect class="cls-3" x="224.72" y="436.77" width="282.13" height="18.9" transform="translate(812 80.43) rotate(90)"/><rect class="cls-4" x="576.38" y="484.75" width="137.86" height="29.45" transform="translate(1227.48 -72.36) rotate(97.77)"/><rect class="cls-4" x="391.51" y="232.98" width="122.26" height="25.97" transform="translate(905.29 491.92) rotate(180)"/><rect class="cls-4" x="667.52" y="244.29" width="109.13" height="25.97" transform="translate(1476.07 119.05) rotate(150)"/><path class="cls-4" d="M404.64,132.38s68.19-.42,123,10.37c65.09,12.82,101.26,49.85,101.26,49.85v36s-55.8-36.52-112.12-50.46c-41.27-10.22-112.12-9.77-112.12-9.77Z"/><rect class="cls-4" x="432.15" y="643.58" width="184.21" height="29.45" transform="translate(1279.01 1030.52) rotate(154.78)"/><rect class="cls-2" x="248.14" y="5.35" width="156.53" height="187.25"/><rect class="cls-2" x="701.42" y="165.58" width="179.85" height="103.43" transform="translate(583.85 -576.68) rotate(60)"/><circle class="cls-2" cx="606.74" cy="318.58" r="131.54"/><polygon class="cls-2" points="394.64 305.15 258.11 305.15 248.11 192.6 404.64 192.6 394.64 305.15"/><rect class="cls-3" x="28.57" y="397.05" width="489.17" height="19.28" transform="translate(303.06 895.68) rotate(-149.61)"/><circle class="cls-2" cx="365.78" cy="465.84" r="49.74"/><circle class="cls-2" cx="606.74" cy="318.58" r="47.12"/><rect class="cls-2" x="479.71" y="524.17" width="163.69" height="71.36" transform="translate(355.16 -205.77) rotate(30)"/><path class="cls-2" d="M365.78,583.51A117.72,117.72,0,0,1,249.84,445.68l-148-24.6c-25.27,152,77.49,295.78,229.53,321.05a277.88,277.88,0,0,0,124.53-7.51L397.05,579.31A118.06,118.06,0,0,1,365.78,583.51Z"/><path class="cls-5" d="M590.48,313.48a6.71,6.71,0,0,1,1.19.09,2.1,2.1,0,0,1,.82.35,1.91,1.91,0,0,1,.67.81,3,3,0,0,1,.22,1.19,2.92,2.92,0,0,1-.22,1.18,1.94,1.94,0,0,1-.65.81,2.2,2.2,0,0,1-.82.37,5.82,5.82,0,0,1-1.21.1h-1.27v3.53h-1.4v-8.43Zm.64,3.59a.94.94,0,0,0,.51-.24.83.83,0,0,0,.25-.36,1.73,1.73,0,0,0,0-1.13,1,1,0,0,0-.75-.57,6.58,6.58,0,0,0-.89,0h-1v2.42h1A4.11,4.11,0,0,0,591.12,317.07Z"/><path class="cls-5" d="M594.77,313.48h1.39v7.18h3.65v1.25h-5Z"/><path class="cls-5" d="M605,313.48l3,8.17v.26h-1.37l-.63-1.85h-3.63l-.64,1.85h-1.39v-.26l3-8.17Zm-2.25,5.34h2.77l-1.32-3.88h-.12Z"/><path class="cls-5" d="M608.68,320.33l5.09-5.59v-.12h-4.91v-1.14h6.2v1.59l-5.09,5.6v.1h5.26v1.14h-6.55Z"/><path class="cls-5" d="M620.56,313.48l3,8.17v.26h-1.38l-.62-1.85h-3.63l-.64,1.85h-1.4v-.26l3-8.17Zm-2.24,5.34h2.77l-1.32-3.88h-.12Z"/><path class="cls-5" d="M762.17,178.31a3,3,0,0,1,.3-1.67,3,3,0,0,1,1.26-1.28l.7,1.21a1.82,1.82,0,0,0-1,1.25,2.52,2.52,0,0,0,.39,1.69,2.05,2.05,0,0,0,.95,1,1.21,1.21,0,0,0,1.07-.12,1.06,1.06,0,0,0,.45-.47,1.18,1.18,0,0,0,.07-.59,5.64,5.64,0,0,0-.17-.84l-.38-1.44a6.52,6.52,0,0,1-.19-1.05,2.2,2.2,0,0,1,.17-1,1.81,1.81,0,0,1,.82-.9,2,2,0,0,1,1.28-.28,2.38,2.38,0,0,1,1.21.53,4.14,4.14,0,0,1,1,1.16,4,4,0,0,1,.54,1.52,2.82,2.82,0,0,1-.17,1.45,2.48,2.48,0,0,1-1,1.13l-.72-1.24a1.42,1.42,0,0,0,.59-1,2,2,0,0,0-.33-1.3,2.12,2.12,0,0,0-.83-.87.92.92,0,0,0-.88,0,.69.69,0,0,0-.39.59,3.2,3.2,0,0,0,.15,1l.41,1.61a6.92,6.92,0,0,1,.2,1.11,2.14,2.14,0,0,1-.19,1,2.08,2.08,0,0,1-.91.93,2.54,2.54,0,0,1-1.4.37,2.47,2.47,0,0,1-1.34-.49,4.08,4.08,0,0,1-1.1-1.27A4.44,4.44,0,0,1,762.17,178.31Z"/><path class="cls-5" d="M766.27,185a3.73,3.73,0,0,1,.62-2,4.92,4.92,0,0,1,1.71-1.57,5.12,5.12,0,0,1,2.2-.71,3.53,3.53,0,0,1,2,.44,4,4,0,0,1,1.53,1.54,4,4,0,0,1,.6,2.11,3.62,3.62,0,0,1-.63,2,5.18,5.18,0,0,1-1.71,1.56,5,5,0,0,1-2.2.71,3.63,3.63,0,0,1-2-.44,4.14,4.14,0,0,1-1.53-1.55A4.05,4.05,0,0,1,766.27,185Zm3.35,2.69a3.4,3.4,0,0,0,2.3-.53,3.47,3.47,0,0,0,1.61-1.74,2.34,2.34,0,0,0-.24-2.07,2.44,2.44,0,0,0-1-1,2.36,2.36,0,0,0-1.38-.23,4,4,0,0,0-1.58.55,4,4,0,0,0-1.25,1.09,2.43,2.43,0,0,0-.48,1.32,2.48,2.48,0,0,0,.37,1.38A2.35,2.35,0,0,0,769.62,187.72Z"/><path class="cls-5" d="M770.9,193a3.44,3.44,0,0,1,.61-2,5,5,0,0,1,1.73-1.58,5.14,5.14,0,0,1,2.23-.73,3.55,3.55,0,0,1,2,.44,4,4,0,0,1,1.52,1.56,3.91,3.91,0,0,1,.56,2.66,3.58,3.58,0,0,1-1.41,2.24l-.73-1.25a2.31,2.31,0,0,0,.84-1.39,2.64,2.64,0,0,0-2-2.85,3.43,3.43,0,0,0-2.29.53,3.38,3.38,0,0,0-1.59,1.72,2.38,2.38,0,0,0,.25,2.06,2.43,2.43,0,0,0,1.23,1.11,2.35,2.35,0,0,0,1.63,0l.72,1.23a3.5,3.5,0,0,1-2.65.12,3.86,3.86,0,0,1-2-1.8A4,4,0,0,1,770.9,193Z"/><path class="cls-5" d="M781.51,195.29l.7,1.21-7.29,4.24-.7-1.21Z"/><path class="cls-5" d="M785.23,201.68l-5.58,6.67-.23.13-.69-1.19,1.28-1.47-1.82-3.14-1.92.38-.7-1.21.23-.13,8.55-1.54Zm-5.75.75,1.39,2.39,2.69-3.09-.06-.1Z"/><path class="cls-5" d="M787.37,205.36l.7,1.21-6.21,3.61,1.83,3.15-1.09.63-2.53-4.36Z"/><path class="cls-5" d="M788.15,222.94l-.24.14-.72-1.24,2-3.59-.61-1L785.53,219l-.7-1.21,7.29-4.24,1.34,2.3a5.13,5.13,0,0,1,.51,1.08,2,2,0,0,1,.12.88,1.91,1.91,0,0,1-.37,1,3.09,3.09,0,0,1-.91.79,3.19,3.19,0,0,1-1.14.4,1.93,1.93,0,0,1-1-.15,2.25,2.25,0,0,1-.61-.41h0Zm1.51-6.35.52.89a4.37,4.37,0,0,0,.49.72,1,1,0,0,0,.47.32.89.89,0,0,0,.44,0,1.65,1.65,0,0,0,1-.56,1.18,1.18,0,0,0,.17-.4,1,1,0,0,0-.06-.54,6.47,6.47,0,0,0-.4-.8l-.52-.89Z"/><path class="cls-5" d="M789.63,225.19a3.64,3.64,0,0,1,.62-2,5,5,0,0,1,1.7-1.57,5,5,0,0,1,2.21-.71,3.63,3.63,0,0,1,2,.43,4.36,4.36,0,0,1,2.12,3.65,3.64,3.64,0,0,1-.62,2,5,5,0,0,1-1.72,1.57,5.12,5.12,0,0,1-2.2.71,3.6,3.6,0,0,1-2-.44,4.34,4.34,0,0,1-2.12-3.65Zm3.35,2.7a4,4,0,0,0,3.9-2.27,2.34,2.34,0,0,0-.24-2.07,2.37,2.37,0,0,0-2.41-1.25A4.52,4.52,0,0,0,791.4,224a2.4,2.4,0,0,0-.48,1.32,2.49,2.49,0,0,0,.38,1.38A2.35,2.35,0,0,0,793,227.89Z"/><path class="cls-5" d="M801.69,230a8.72,8.72,0,0,1,.65,1.32,2.15,2.15,0,0,1,.11,1.12,2.11,2.11,0,0,1-2.07,1.64,1.94,1.94,0,0,1-1-.3l-.09.06a1.83,1.83,0,0,1-.12,1.23,2.24,2.24,0,0,1-.92.94,2.88,2.88,0,0,1-1,.35,2.12,2.12,0,0,1-1-.11,2.28,2.28,0,0,1-.89-.64,7.61,7.61,0,0,1-1-1.35l-1.25-2.16,7.29-4.24Zm-5.08,4.88a1.19,1.19,0,0,0,1.08-.14,1.07,1.07,0,0,0,.61-.8,1,1,0,0,0-.06-.48,6.06,6.06,0,0,0-.34-.67l-.25-.43-.55-.94-2.17,1.26.53.93A3,3,0,0,0,796.61,234.87Zm2.64-2.38a1.08,1.08,0,0,0,.45.34,1.17,1.17,0,0,0,1.39-.83,1.15,1.15,0,0,0-.08-.59,5.41,5.41,0,0,0-.44-.86l-.5-.87-1.88,1.1.55.94A4.63,4.63,0,0,0,799.25,232.49Z"/><path class="cls-5" d="M798,239.6a3.68,3.68,0,0,1,.61-2,5.08,5.08,0,0,1,1.71-1.56,5,5,0,0,1,2.2-.72,3.59,3.59,0,0,1,2,.44,4,4,0,0,1,1.53,1.55,4,4,0,0,1,.6,2.1,3.57,3.57,0,0,1-.63,2,5,5,0,0,1-1.71,1.56,4.9,4.9,0,0,1-2.2.71,3.57,3.57,0,0,1-2-.43,4.12,4.12,0,0,1-1.54-1.56A3.92,3.92,0,0,1,798,239.6Zm3.34,2.7a3.4,3.4,0,0,0,2.3-.54,3.45,3.45,0,0,0,1.61-1.73A2.36,2.36,0,0,0,805,238a2.5,2.5,0,0,0-1-1,2.44,2.44,0,0,0-1.38-.23,3.92,3.92,0,0,0-1.58.56,3.75,3.75,0,0,0-1.25,1.09,2.37,2.37,0,0,0-.48,1.31,2.6,2.6,0,0,0,.37,1.39A2.4,2.4,0,0,0,801.35,242.3Z"/><path class="cls-5" d="M808.46,244.11l-1.35-2.32,1.07-.63L811.6,247l-1.08.62-1.36-2.34-6.22,3.62-.7-1.21Z"/><path class="cls-5" d="M805.71,253.19a3,3,0,0,1,.3-1.67,3.08,3.08,0,0,1,1.26-1.27l.7,1.2a1.85,1.85,0,0,0-1,1.26,2.52,2.52,0,0,0,.39,1.69,2.07,2.07,0,0,0,1,.94,1.18,1.18,0,0,0,1.07-.12,1,1,0,0,0,.45-.47,1.16,1.16,0,0,0,.07-.59,5.55,5.55,0,0,0-.17-.83l-.38-1.45a6.52,6.52,0,0,1-.19-1,2.24,2.24,0,0,1,.17-1,1.81,1.81,0,0,1,.83-.89,1.89,1.89,0,0,1,1.27-.28,2.34,2.34,0,0,1,1.21.53,4.09,4.09,0,0,1,1,1.15,4.15,4.15,0,0,1,.54,1.52,2.75,2.75,0,0,1-.17,1.46,2.46,2.46,0,0,1-1,1.12l-.72-1.23a1.47,1.47,0,0,0,.6-1,2.51,2.51,0,0,0-1.17-2.16.87.87,0,0,0-.88,0,.69.69,0,0,0-.39.59,3.11,3.11,0,0,0,.15,1l.41,1.62a5.74,5.74,0,0,1,.2,1.1,2,2,0,0,1-.19,1,2.08,2.08,0,0,1-.91.93,2.52,2.52,0,0,1-1.4.37,2.56,2.56,0,0,1-1.34-.49,4.26,4.26,0,0,1-1.1-1.28A4.34,4.34,0,0,1,805.71,253.19Z"/><path class="cls-5" d="M314.78,665.18H312.1v-1.24h6.79v1.24h-2.71v7.19h-1.4Z"/><path class="cls-5" d="M320.15,663.94h1.4v3.58h3.92v-3.58h1.4v8.43h-1.4v-3.6h-3.92v3.6h-1.4Z"/><path class="cls-5" d="M329.1,663.94h5.35v1.24h-4v2.22h3.64v1.24h-3.64v2.49h4.2v1.24H329.1Z"/><path class="cls-5" d="M339.48,663.94h5.37v1.24h-4v2.22h3.43v1.24h-3.43v3.73h-1.4Z"/><path class="cls-5" d="M347.58,672a3.58,3.58,0,0,1-1.4-1.53,5,5,0,0,1-.5-2.26,5.18,5.18,0,0,1,.49-2.27,3.64,3.64,0,0,1,1.4-1.53,4.39,4.39,0,0,1,4.22,0,3.58,3.58,0,0,1,1.4,1.53,5,5,0,0,1,.49,2.27,5,5,0,0,1-.49,2.26,3.58,3.58,0,0,1-1.4,1.53,4.3,4.3,0,0,1-4.21,0Zm4-1.54a3.4,3.4,0,0,0,.69-2.25,3.48,3.48,0,0,0-.69-2.27,2.36,2.36,0,0,0-1.91-.83,2.51,2.51,0,0,0-1.39.38,2.41,2.41,0,0,0-.9,1.08,4.47,4.47,0,0,0,0,3.27,2.41,2.41,0,0,0,.9,1.08,2.51,2.51,0,0,0,1.39.37A2.36,2.36,0,0,0,351.59,670.41Z"/><path class="cls-5" d="M361.44,672.1v.27H360l-2.11-3.53h-1.19v3.53h-1.4v-8.43H358a5.74,5.74,0,0,1,1.19.1,2,2,0,0,1,.82.34,1.86,1.86,0,0,1,.67.82,3.27,3.27,0,0,1,0,2.36,2,2,0,0,1-.64.81,2.23,2.23,0,0,1-.66.32v0Zm-4.73-4.5h1a4,4,0,0,0,.87-.07,1,1,0,0,0,.52-.24.92.92,0,0,0,.25-.36,1.61,1.61,0,0,0,.1-.57,1.25,1.25,0,0,0-.1-.56.94.94,0,0,0-.25-.34,1.06,1.06,0,0,0-.5-.23,6.37,6.37,0,0,0-.89-.05h-1Z"/><path class="cls-5" d="M362.83,663.94h5.36v1.24h-4v2.22h3.64v1.24h-3.64v2.49h4.2v1.24h-5.6Z"/><path class="cls-5" d="M371.18,672.12a3,3,0,0,1-1.3-1.1,3.13,3.13,0,0,1-.47-1.73h1.4a1.82,1.82,0,0,0,.6,1.47,2.47,2.47,0,0,0,1.65.51,2,2,0,0,0,1.29-.34,1.19,1.19,0,0,0,.44-1,1,1,0,0,0-.18-.62,1.09,1.09,0,0,0-.48-.36,4.88,4.88,0,0,0-.8-.27l-1.44-.4a6.92,6.92,0,0,1-1-.37,2.09,2.09,0,0,1-.79-.65,1.82,1.82,0,0,1-.36-1.17,2,2,0,0,1,.39-1.24,2.56,2.56,0,0,1,1.08-.78,4,4,0,0,1,1.49-.26,4.27,4.27,0,0,1,1.58.29,2.68,2.68,0,0,1,1.17.88,2.46,2.46,0,0,1,.49,1.4H374.5a1.46,1.46,0,0,0-.53-1,2,2,0,0,0-1.29-.36,2.07,2.07,0,0,0-1.17.28.89.89,0,0,0-.42.77.72.72,0,0,0,.32.64,3.22,3.22,0,0,0,1,.38l1.61.46a6,6,0,0,1,1,.38,2.18,2.18,0,0,1,.79.68,2.11,2.11,0,0,1,.34,1.26,2.46,2.46,0,0,1-.38,1.39,2.42,2.42,0,0,1-1.1.91,4,4,0,0,1-1.65.32A4.37,4.37,0,0,1,371.18,672.12Z"/><path class="cls-5" d="M379.45,665.18h-2.68v-1.24h6.79v1.24h-2.71v7.19h-1.4Z"/><path class="cls-5" d="M349.7,470.6a3,3,0,0,1-1.3-1.1,3.13,3.13,0,0,1-.47-1.73h1.4a1.82,1.82,0,0,0,.6,1.47,2.47,2.47,0,0,0,1.65.51,2,2,0,0,0,1.29-.34,1.17,1.17,0,0,0,.44-1,1,1,0,0,0-.18-.62,1.12,1.12,0,0,0-.47-.36,5.42,5.42,0,0,0-.81-.27l-1.44-.4a6.92,6.92,0,0,1-1-.37,2.16,2.16,0,0,1-.79-.65,1.82,1.82,0,0,1-.36-1.17,1.94,1.94,0,0,1,.4-1.24,2.39,2.39,0,0,1,1.07-.78,4,4,0,0,1,1.49-.26,4.08,4.08,0,0,1,1.58.29,2.68,2.68,0,0,1,1.17.88,2.46,2.46,0,0,1,.49,1.4H353a1.43,1.43,0,0,0-.53-1,2,2,0,0,0-1.29-.36,2.07,2.07,0,0,0-1.17.28.89.89,0,0,0-.42.77.72.72,0,0,0,.32.64,3.22,3.22,0,0,0,1,.38l1.61.46a6,6,0,0,1,1.05.38,2.18,2.18,0,0,1,.79.68,2.11,2.11,0,0,1,.34,1.26,2.39,2.39,0,0,1-1.47,2.3,4.1,4.1,0,0,1-1.66.31A4.37,4.37,0,0,1,349.7,470.6Z"/><path class="cls-5" d="M358,463.66h-2.68v-1.24h6.79v1.24h-2.71v7.19H358Z"/><path class="cls-5" d="M366.39,462.42l3,8.17v.26H368l-.62-1.84h-3.63l-.64,1.84h-1.4v-.26l3-8.17Zm-2.25,5.34h2.78l-1.32-3.88h-.12Z"/><path class="cls-5" d="M376.77,470.58v.27h-1.43l-2.1-3.53H372v3.53h-1.39v-8.43h2.66a5.81,5.81,0,0,1,1.19.1,2.09,2.09,0,0,1,.82.34,1.88,1.88,0,0,1,.67.82,3.27,3.27,0,0,1,0,2.36,1.94,1.94,0,0,1-.65.81,2,2,0,0,1-.66.32v0Zm-4.73-4.5h1A4.11,4.11,0,0,0,374,466a.94.94,0,0,0,.51-.24.84.84,0,0,0,.26-.36,1.62,1.62,0,0,0,.09-.57,1.42,1.42,0,0,0-.09-.56,1,1,0,0,0-.75-.57,6.47,6.47,0,0,0-.89,0h-1Z"/><path class="cls-5" d="M379.83,463.66h-2.68v-1.24h6.78v1.24h-2.7v7.19h-1.4Z"/><path class="cls-5" d="M304.74,256.79a3.63,3.63,0,0,1-1.39-1.51,5.62,5.62,0,0,1,0-4.59,3.57,3.57,0,0,1,1.39-1.51,4,4,0,0,1,2.11-.54,3.88,3.88,0,0,1,2.58.86,3.58,3.58,0,0,1,1.23,2.35h-1.44a2.29,2.29,0,0,0-.79-1.43,2.4,2.4,0,0,0-1.58-.51,2.36,2.36,0,0,0-1.9.83,4,4,0,0,0,0,4.49,2.65,2.65,0,0,0,3.48.31,2.32,2.32,0,0,0,.8-1.42h1.43a3.58,3.58,0,0,1-1.23,2.35,3.88,3.88,0,0,1-2.58.85A4,4,0,0,1,304.74,256.79Z"/><path class="cls-5" d="M312.06,248.77h1.39v8.43h-1.39Z"/><path class="cls-5" d="M315.66,248.77H318l3.3,7.19h.12v-7.19h1.4v8.43h-2.39L317.18,250h-.12v7.19h-1.4Z"/><path class="cls-5" d="M325.07,248.77h5.36V250h-4v2.22h3.64v1.24h-3.64V256h4.2v1.24h-5.6Z"/><path class="cls-5" d="M332.31,248.77h2.54L336.7,256h.12l1.87-7.19h2.53v8.43h-1.4V250h-.12l-1.9,7.19h-2.07L333.82,250h-.12v7.19h-1.39Z"/><path class="cls-5" d="M347.21,248.77l3,8.17v.26H348.8l-.63-1.85h-3.63l-.64,1.85h-1.4v-.26l3-8.17ZM345,254.11h2.77l-1.32-3.88h-.12Z"/><path class="cls-5" d="M263.08,106.23h5.37v1.25h-4v2.22h3.43v1.24h-3.43v3.73h-1.4Z"/><path class="cls-5" d="M270.65,112.47a17,17,0,0,0,2-2,3,3,0,0,0,.77-1.83,1.31,1.31,0,0,0-.36-1,1.67,1.67,0,0,0-2.19.1,1.87,1.87,0,0,0-.41,1.18h-1.28a3.22,3.22,0,0,1,.37-1.42,2.53,2.53,0,0,1,1-1,3.06,3.06,0,0,1,1.53-.36,2.94,2.94,0,0,1,1.41.31,2.16,2.16,0,0,1,.89.88,2.5,2.5,0,0,1,.31,1.26,3.74,3.74,0,0,1-.71,2.16,10,10,0,0,1-1.71,1.88l-.92.75v.13h3.78v1.16h-5.89v-1Z"/><path class="cls-5" d="M276.87,114.59a.89.89,0,0,1-.27-.64.83.83,0,0,1,.27-.63.94.94,0,0,1,.67-.27.89.89,0,0,1,.65.27.84.84,0,0,1,.28.63.89.89,0,0,1-.27.64.87.87,0,0,1-.66.28A.91.91,0,0,1,276.87,114.59Z"/><path class="cls-5" d="M286.4,106.23a6.61,6.61,0,0,1,1.19.1,2.25,2.25,0,0,1,.82.34,1.92,1.92,0,0,1,.67.82,3.3,3.3,0,0,1,0,2.37,1.94,1.94,0,0,1-.65.81,2.2,2.2,0,0,1-.82.37,5.82,5.82,0,0,1-1.21.1h-1.27v3.53h-1.39v-8.44Zm.64,3.6a.94.94,0,0,0,.51-.24.84.84,0,0,0,.26-.36,1.72,1.72,0,0,0,.1-.58,1.35,1.35,0,0,0-.1-.55,1,1,0,0,0-.75-.57,6.47,6.47,0,0,0-.89,0h-1v2.42h1A4.05,4.05,0,0,0,287,109.83Z"/><path class="cls-5" d="M296.82,114.4v.27h-1.43l-2.11-3.53h-1.19v3.53h-1.4v-8.44h2.66a6.53,6.53,0,0,1,1.19.1,2.18,2.18,0,0,1,.82.34,1.92,1.92,0,0,1,.67.82,3.3,3.3,0,0,1,0,2.37,2,2,0,0,1-.64.81,2.23,2.23,0,0,1-.66.32v0Zm-4.73-4.5h1a4,4,0,0,0,.87-.07,1,1,0,0,0,.52-.24.92.92,0,0,0,.25-.36,1.72,1.72,0,0,0,.1-.58,1.2,1.2,0,0,0-.1-.55,1,1,0,0,0-.25-.35,1,1,0,0,0-.5-.22,6.37,6.37,0,0,0-.89,0h-1Z"/><path class="cls-5" d="M299.51,114.25a3.7,3.7,0,0,1-1.4-1.53,5.48,5.48,0,0,1,0-4.53,3.52,3.52,0,0,1,1.4-1.53,3.92,3.92,0,0,1,2.1-.55,4,4,0,0,1,2.12.55,3.64,3.64,0,0,1,1.4,1.53,5.48,5.48,0,0,1,0,4.53,3.7,3.7,0,0,1-1.4,1.53,4.08,4.08,0,0,1-2.12.54A4,4,0,0,1,299.51,114.25Zm4-1.54a3.44,3.44,0,0,0,.69-2.25,3.48,3.48,0,0,0-.69-2.27,2.66,2.66,0,0,0-3.3-.45,2.44,2.44,0,0,0-.9,1.07,4,4,0,0,0-.31,1.65,3.92,3.92,0,0,0,.31,1.63,2.38,2.38,0,0,0,.9,1.07,2.48,2.48,0,0,0,1.38.38A2.38,2.38,0,0,0,303.53,112.71Z"/><path class="cls-5" d="M308.66,107.48H306v-1.25h6.79v1.25h-2.71v7.19h-1.4Z"/><path class="cls-5" d="M315,114.25a3.7,3.7,0,0,1-1.4-1.53,5.48,5.48,0,0,1,0-4.53,3.56,3.56,0,0,1,1.39-1.53,4.34,4.34,0,0,1,4.23,0,3.64,3.64,0,0,1,1.4,1.53,5.58,5.58,0,0,1,0,4.53,3.7,3.7,0,0,1-1.4,1.53,4.08,4.08,0,0,1-2.12.54A4,4,0,0,1,315,114.25Zm4-1.54a3.38,3.38,0,0,0,.7-2.25,3.42,3.42,0,0,0-.7-2.27,2.36,2.36,0,0,0-1.91-.83,2.46,2.46,0,0,0-1.39.38,2.48,2.48,0,0,0-.89,1.07,4,4,0,0,0-.32,1.65,3.92,3.92,0,0,0,.32,1.63,2.43,2.43,0,0,0,.89,1.07,2.54,2.54,0,0,0,1.39.38A2.36,2.36,0,0,0,319,112.71Z"/><path class="cls-5" d="M324.16,107.48h-2.68v-1.25h6.78v1.25h-2.7v7.19h-1.4Z"/><path class="cls-5" d="M331.78,111.53l-3-5v-.27h1.47l2.21,3.88h.1l2.21-3.88h1.48v.27l-3,5v3.14h-1.4Z"/><path class="cls-5" d="M340.08,106.23a6.61,6.61,0,0,1,1.19.1,2.25,2.25,0,0,1,.82.34,1.92,1.92,0,0,1,.67.82,3.3,3.3,0,0,1,0,2.37,1.94,1.94,0,0,1-.65.81,2.2,2.2,0,0,1-.82.37,5.82,5.82,0,0,1-1.21.1h-1.27v3.53h-1.39v-8.44Zm.64,3.6a.94.94,0,0,0,.51-.24.84.84,0,0,0,.26-.36,1.72,1.72,0,0,0,.1-.58,1.35,1.35,0,0,0-.1-.55,1,1,0,0,0-.75-.57,6.47,6.47,0,0,0-.89,0h-1v2.42h1A4.05,4.05,0,0,0,340.72,109.83Z"/><path class="cls-5" d="M344.37,106.23h1.4v8.44h-1.4Z"/><path class="cls-5" d="M348,106.23h2.37l3.3,7.2h.12v-7.2h1.4v8.44h-2.39l-3.29-7.19h-.12v7.19H348Z"/><path class="cls-5" d="M361.09,110.14h3.6v4.53h-1.1l-.13-.83h-.15a2.64,2.64,0,0,1-1,.71,4.58,4.58,0,0,1-3.6-.29,3.58,3.58,0,0,1-1.41-1.52,5.16,5.16,0,0,1-.49-2.33,5,5,0,0,1,.48-2.27,3.44,3.44,0,0,1,1.37-1.5,4.15,4.15,0,0,1,2.13-.53,4.4,4.4,0,0,1,1.89.39,3.55,3.55,0,0,1,1.37,1.11,3.69,3.69,0,0,1,.65,1.7h-1.43a2.26,2.26,0,0,0-.84-1.43,2.57,2.57,0,0,0-1.64-.52,2.46,2.46,0,0,0-1.39.38,2.48,2.48,0,0,0-.89,1.07,3.87,3.87,0,0,0-.32,1.62,3.27,3.27,0,0,0,.76,2.28,2.73,2.73,0,0,0,2.1.83,2.42,2.42,0,0,0,1.59-.5,2.18,2.18,0,0,0,.56-.71,2.29,2.29,0,0,0,.23-1h-2.33Z"/><path class="cls-5" d="M369.79,106.23h1.4v7.19h3.64v1.25h-5Z"/><path class="cls-5" d="M380,106.23l3,8.18v.26h-1.38l-.62-1.85h-3.63l-.64,1.85h-1.4v-.26l3-8.18Zm-2.25,5.35h2.78l-1.32-3.88h-.12Z"/><path class="cls-5" d="M386.74,106.23a9.57,9.57,0,0,1,1.47.1,2.18,2.18,0,0,1,1,.48,1.87,1.87,0,0,1,.67,1.53,1.9,1.9,0,0,1-.3,1.08,2,2,0,0,1-.74.68v.11a1.76,1.76,0,0,1,1,.72,2.21,2.21,0,0,1,.35,1.27,2.73,2.73,0,0,1-.21,1,2.05,2.05,0,0,1-.62.84,2.33,2.33,0,0,1-1,.45,8.07,8.07,0,0,1-1.65.13h-2.49v-8.44Zm.94,3.37a1,1,0,0,0,.51-.22,1,1,0,0,0,.32-.8,1,1,0,0,0-.33-.82,1.21,1.21,0,0,0-.55-.23,8,8,0,0,0-1,0h-1v2.18h1.09A5.52,5.52,0,0,0,387.68,109.6Zm.73,3.48a1.2,1.2,0,0,0,.42-1,1.09,1.09,0,0,0-.38-.94A1.12,1.12,0,0,0,388,111a4.71,4.71,0,0,0-.74,0h-1.59v2.52h1.07A3,3,0,0,0,388.41,113.08Z"/><path class="cls-5" d="M291.56,70.73h5.37V72h-4v2.22h3.44v1.25H293v3.72h-1.39Z"/><path class="cls-5" d="M300.71,70.73v8.43h-1.24V73h-2V72h1.33a.85.85,0,0,0,.57-.15.71.71,0,0,0,.17-.54v-.58Z"/><path class="cls-5" d="M303.1,79.09a.88.88,0,0,1-.28-.65.84.84,0,0,1,.28-.63.94.94,0,0,1,.67-.26.91.91,0,0,1,.65.27.84.84,0,0,1,.27.62.91.91,0,0,1-.27.65.89.89,0,0,1-.65.27A.9.9,0,0,1,303.1,79.09Z"/><path class="cls-5" d="M312.62,70.73a5.74,5.74,0,0,1,1.19.1,2.14,2.14,0,0,1,.83.34,1.91,1.91,0,0,1,.66.82,3.14,3.14,0,0,1,0,2.36,1.92,1.92,0,0,1-.64.81,2.09,2.09,0,0,1-.83.37,5.76,5.76,0,0,1-1.21.1h-1.26v3.53H310V70.73Zm.65,3.59a1,1,0,0,0,.51-.24.92.92,0,0,0,.25-.36,1.73,1.73,0,0,0,0-1.13,1.1,1.1,0,0,0-.26-.34,1,1,0,0,0-.5-.22,4.92,4.92,0,0,0-.89-.06h-1v2.42h1A4.16,4.16,0,0,0,313.27,74.32Z"/><path class="cls-5" d="M319.89,70.73l3,8.17v.26h-1.37l-.63-1.84h-3.63l-.64,1.84h-1.39V78.9l3-8.17Zm-2.24,5.34h2.77l-1.32-3.88H319Z"/><path class="cls-5" d="M322.49,71v-.26h1.4l2.39,7h.13l2.37-7h1.38V71l-3,8.17h-1.74Z"/><path class="cls-5" d="M331.45,70.73h1.4v8.43h-1.4Z"/><path class="cls-5" d="M335.06,70.73h1.4v7.18h3.64v1.25h-5Z"/><path class="cls-5" d="M341.38,70.73h1.39v8.43h-1.39Z"/><path class="cls-5" d="M346.28,78.74a3.62,3.62,0,0,1-1.39-1.53,5.41,5.41,0,0,1,0-4.52,3.61,3.61,0,0,1,1.4-1.54,4,4,0,0,1,2.1-.54,4.05,4.05,0,0,1,2.12.54,3.61,3.61,0,0,1,1.4,1.54,5.46,5.46,0,0,1,0,4.52,3.58,3.58,0,0,1-1.4,1.53,4.05,4.05,0,0,1-2.12.55A4,4,0,0,1,346.28,78.74Zm4-1.54a4,4,0,0,0,0-4.51,2.35,2.35,0,0,0-1.92-.84,2.5,2.5,0,0,0-1.38.38,2.41,2.41,0,0,0-.9,1.08,4.47,4.47,0,0,0,0,3.27,2.41,2.41,0,0,0,.9,1.08,2.5,2.5,0,0,0,1.38.37A2.37,2.37,0,0,0,350.3,77.2Z"/><path class="cls-5" d="M354,70.73h2.37l3.3,7.19h.12V70.73h1.4v8.43h-2.39L355.53,72h-.12v7.19H354Z"/><path class="cls-5" d="M501.32,521l.13-.22,1.21.71-1.47,7.21.11.06,5.58-4.79,1.18.7-.13.22-6.7,5.55-1.5-.89Z"/><path class="cls-5" d="M511.81,526.85l-1.6,8.55-.14.22-1.18-.69.4-1.92-3.13-1.84-1.49,1.27-1.2-.71.13-.22,6.71-5.54Zm-4.65,3.47,2.39,1.41.83-4-.1-.06Z"/><path class="cls-5" d="M515.47,529l2,1.21-.81,7.87.11.06,3.65-6.2,1.2.71-4.28,7.27-2.06-1.21.82-7.87-.1-.06L512.4,537l-1.21-.71Z"/><path class="cls-5" d="M526.29,535.38l4.61,2.72-.63,1.07-3.41-2-1.13,1.92,3.14,1.84-.63,1.07-3.14-1.84-1.26,2.14,3.62,2.13-.63,1.07L522,542.65Z"/><path class="cls-5" d="M532.53,539.05l4.61,2.72-.63,1.07-3.41-2L532,542.75l3.14,1.85-.63,1.07-3.14-1.85L530.08,546l3.62,2.13-.63,1.08-4.83-2.85Z"/><path class="cls-5" d="M535.56,550.34a3,3,0,0,1-.55-1.6,3,3,0,0,1,.47-1.73l1.2.71a1.81,1.81,0,0,0-.23,1.57,2.49,2.49,0,0,0,1.17,1.28,2,2,0,0,0,1.29.35,1.2,1.2,0,0,0,.87-.62,1,1,0,0,0,.16-.63,1.14,1.14,0,0,0-.22-.55c-.13-.17-.32-.39-.56-.65l-1-1.07a6.69,6.69,0,0,1-.68-.82,2.25,2.25,0,0,1-.35-1,1.79,1.79,0,0,1,.28-1.19,1.94,1.94,0,0,1,1-.87,2.52,2.52,0,0,1,1.32-.13,4.25,4.25,0,0,1,1.42.53,4.17,4.17,0,0,1,1.21,1.06,2.77,2.77,0,0,1,.57,1.35,2.48,2.48,0,0,1-.29,1.46l-1.23-.73a1.48,1.48,0,0,0,0-1.13,2,2,0,0,0-.93-1,2,2,0,0,0-1.15-.35.91.91,0,0,0-.75.45.71.71,0,0,0-.06.71,3.23,3.23,0,0,0,.64.82l1.15,1.21a9.37,9.37,0,0,1,.72.86,2.15,2.15,0,0,1,.33,1,2.11,2.11,0,0,1-.34,1.26,2.58,2.58,0,0,1-1,1,2.46,2.46,0,0,1-1.41.22,4,4,0,0,1-1.58-.57A4.55,4.55,0,0,1,535.56,550.34Z"/><path class="cls-5" d="M546.22,548.56l-2.32-1.36.63-1.07,5.85,3.44-.63,1.07-2.33-1.37-3.65,6.2-1.2-.71Z"/><path class="cls-5" d="M551.47,550.21l4.62,2.72-.63,1.07-3.41-2-1.13,1.92,3.14,1.84-.63,1.08L550.29,555,549,557.12l3.62,2.13-.63,1.07-4.83-2.84Z"/><path class="cls-5" d="M558.85,564l-.14.23-1.23-.72,0-4.11-1-.61-1.79,3-1.2-.7,4.28-7.27,2.29,1.35a5.18,5.18,0,0,1,1,.69,2.13,2.13,0,0,1,.54.71,1.92,1.92,0,0,1,.15,1,2.91,2.91,0,0,1-.4,1.13,3,3,0,0,1-.8.91,1.88,1.88,0,0,1-1,.37,2.17,2.17,0,0,1-.73-.06l0,0Zm-1.79-6.28.89.53a4.5,4.5,0,0,0,.78.38,1,1,0,0,0,.57.05.83.83,0,0,0,.4-.18,1.49,1.49,0,0,0,.37-.44,1.3,1.3,0,0,0,.2-.53,1,1,0,0,0,0-.43,1,1,0,0,0-.32-.44,4.58,4.58,0,0,0-.74-.5l-.89-.52Z"/><path class="cls-5" d="M564.19,557.7l4.62,2.72-.63,1.07-3.41-2-1.13,1.92,3.14,1.85-.63,1.07L563,562.47l-1.26,2.14,3.62,2.13-.63,1.07L559.91,565Z"/><path class="cls-5" d="M570.43,561.38l2.05,1.2-.81,7.88.1.06,3.65-6.2,1.21.71-4.28,7.27-2.06-1.21.82-7.87-.11-.06-3.65,6.2-1.2-.71Z"/><path class="cls-5" d="M581.24,567.75l2.19,1.29-2,7.13.1.06,5.26-5.25,2.18,1.29-4.28,7.27-1.2-.71,3.65-6.2-.11-.06-5.29,5.23-1.78-1,2-7.16-.1-.06-3.65,6.19L577,575Z"/><path class="cls-5" d="M587.44,580.49a2,2,0,0,1,0-1.3,5.72,5.72,0,0,1,.58-1.31l2.7-4.58,1.2.71-2.56,4.34a5.8,5.8,0,0,0-.46.95,1.59,1.59,0,0,0-.06.86,1.34,1.34,0,0,0,.31.57,2.7,2.7,0,0,0,.61.48,1.71,1.71,0,0,0,1.37.29,1.47,1.47,0,0,0,.72-.46,5.45,5.45,0,0,0,.6-.87l2.56-4.34,1.21.71-2.69,4.58a6.08,6.08,0,0,1-.85,1.13,2.08,2.08,0,0,1-1.16.61,3.44,3.44,0,0,1-2.4-.57A3.29,3.29,0,0,1,587.44,580.49Z"/><path class="cls-5" d="M594.74,585.19a3,3,0,0,1-.55-1.6,3.06,3.06,0,0,1,.47-1.73l1.2.71a1.84,1.84,0,0,0-.23,1.57,2.45,2.45,0,0,0,1.17,1.28,2.05,2.05,0,0,0,1.29.36,1.15,1.15,0,0,0,.87-.63,1,1,0,0,0,.16-.63,1.18,1.18,0,0,0-.22-.55,6.32,6.32,0,0,0-.56-.64l-1-1.07a7.79,7.79,0,0,1-.68-.83,2.25,2.25,0,0,1-.35-1,1.87,1.87,0,0,1,.28-1.19,2.08,2.08,0,0,1,1-.87,2.44,2.44,0,0,1,1.32-.12,3.79,3.79,0,0,1,1.42.53,4.18,4.18,0,0,1,1.22,1.05,2.84,2.84,0,0,1,.56,1.36,2.45,2.45,0,0,1-.29,1.45l-1.23-.73a1.44,1.44,0,0,0,.05-1.13,2,2,0,0,0-.93-1,2,2,0,0,0-1.15-.34.87.87,0,0,0-.75.45.7.7,0,0,0,0,.71,3.32,3.32,0,0,0,.63.82l1.15,1.2a6.33,6.33,0,0,1,.72.87,2.15,2.15,0,0,1,.33,1,2,2,0,0,1-.34,1.25,2.52,2.52,0,0,1-1,1,2.44,2.44,0,0,1-1.4.23,4.09,4.09,0,0,1-1.59-.57A4.46,4.46,0,0,1,594.74,585.19Z"/><path class="cls-5" d="M604.46,581.42l4.61,2.71-.63,1.08-3.41-2-1.13,1.91L607,587l-.63,1.07-3.14-1.85L602,588.32l3.62,2.14-.63,1.07-4.82-2.84Z"/><path class="cls-5" d="M607.3,592.19a2.14,2.14,0,0,1,0-1.3,6,6,0,0,1,.59-1.31l2.69-4.58,1.21.71-2.56,4.34a5.4,5.4,0,0,0-.46,1,1.59,1.59,0,0,0-.06.86,1.34,1.34,0,0,0,.31.57,2.44,2.44,0,0,0,.6.48,1.74,1.74,0,0,0,1.38.29,1.49,1.49,0,0,0,.71-.46,6.18,6.18,0,0,0,.61-.87l2.56-4.34,1.21.71-2.7,4.58a6.51,6.51,0,0,1-.84,1.13,2.08,2.08,0,0,1-1.16.61A3.44,3.44,0,0,1,609,594,3.39,3.39,0,0,1,607.3,592.19Z"/><path class="cls-5" d="M617.81,589.28l2.19,1.29-2.06,7.14.11.06,5.26-5.25,2.18,1.28-4.28,7.27-1.21-.71,3.66-6.2-.11-.06-5.29,5.24-1.78-1.05,2-7.17-.1-.06-3.66,6.2-1.2-.71Z"/><path class="cls-5" d="M172.75,545.34a5.81,5.81,0,0,1,1.19.1,2.09,2.09,0,0,1,.82.34,2,2,0,0,1,.67.82,3.27,3.27,0,0,1,0,2.36,2,2,0,0,1-.65.81,2,2,0,0,1-.82.37,5.82,5.82,0,0,1-1.21.1h-1.27v3.53h-1.4v-8.43Zm.64,3.59a.94.94,0,0,0,.51-.24.83.83,0,0,0,.25-.36,1.73,1.73,0,0,0,0-1.13,1.1,1.1,0,0,0-.26-.35,1,1,0,0,0-.49-.21,5.07,5.07,0,0,0-.89-.06h-1V549h1A4.11,4.11,0,0,0,173.39,548.93Z"/><path class="cls-5" d="M178.39,553.35a3.64,3.64,0,0,1-1.4-1.53,5.46,5.46,0,0,1,0-4.52,3.58,3.58,0,0,1,1.39-1.54,4.41,4.41,0,0,1,4.23,0,3.67,3.67,0,0,1,1.4,1.54,5.56,5.56,0,0,1,0,4.52,3.64,3.64,0,0,1-1.4,1.53,4.08,4.08,0,0,1-2.12.54A4,4,0,0,1,178.39,553.35Zm4-1.54a4,4,0,0,0,0-4.51,2.34,2.34,0,0,0-1.91-.84,2.54,2.54,0,0,0-1.39.38,2.46,2.46,0,0,0-.89,1.08,4.34,4.34,0,0,0,0,3.27,2.46,2.46,0,0,0,.89,1.08,2.53,2.53,0,0,0,1.39.37A2.36,2.36,0,0,0,182.4,551.81Z"/><path class="cls-5" d="M186.12,545.34h1.4v7.18h3.64v1.25h-5Z"/><path class="cls-5" d="M192.44,545.34h1.39v8.43h-1.39Z"/><path class="cls-5" d="M197.78,546.58H195.1v-1.24h6.79v1.24h-2.71v7.19h-1.4Z"/><path class="cls-5" d="M203.15,545.34h1.4v8.43h-1.4Z"/><path class="cls-5" d="M206.76,545.34h5.36v1.24h-4v2.22h3.64v1.25h-3.64v2.48h4.2v1.24h-5.6Z"/><rect class="cls-2" x="22.47" y="235.18" width="42.64" height="73.97" transform="translate(141.95 14.57) rotate(30)"/><path class="cls-5" d="M31.33,285.37a5.13,5.13,0,0,1,2.32-2.27,4,4,0,0,1,3.66.43,4,4,0,0,1,2.18,3,4.35,4.35,0,0,1-.14,1.54,7.17,7.17,0,0,1-.69,1.61l-1.3,2.22L30,287.59Zm6.81,1.31a2.82,2.82,0,0,0-1.54-1.94,2.83,2.83,0,0,0-2.45-.38A3.51,3.51,0,0,0,32.4,286l-.59,1L37,290l.59-1A3.5,3.5,0,0,0,38.14,286.68Z"/><path class="cls-5" d="M42.13,282.76a3.66,3.66,0,0,1-2,.44,5,5,0,0,1-2.2-.72,4.89,4.89,0,0,1-1.71-1.56,3.61,3.61,0,0,1-.62-2,4.38,4.38,0,0,1,2.13-3.65,3.61,3.61,0,0,1,2-.43,5.46,5.46,0,0,1,3.9,2.28,3.56,3.56,0,0,1,.62,2,4,4,0,0,1-.6,2.1A3.91,3.91,0,0,1,42.13,282.76Zm.7-4.24a4,4,0,0,0-3.9-2.28,2.36,2.36,0,0,0-1.69,1.23,2.51,2.51,0,0,0-.37,1.39,2.43,2.43,0,0,0,.48,1.32,4.16,4.16,0,0,0,1.26,1.1,4,4,0,0,0,1.57.55,2.36,2.36,0,0,0,1.38-.23,2.54,2.54,0,0,0,1-1A2.37,2.37,0,0,0,42.83,278.52Z"/><path class="cls-5" d="M46.79,274.81a3.63,3.63,0,0,1-2,.44,5.12,5.12,0,0,1-2.22-.74,5.06,5.06,0,0,1-1.74-1.58,3.5,3.5,0,0,1-.6-2,4.37,4.37,0,0,1,2.64-3.89,3.6,3.6,0,0,1,2.65.12l-.73,1.25a2.24,2.24,0,0,0-1.63,0,2.62,2.62,0,0,0-1.48,3.17,3.46,3.46,0,0,0,1.6,1.73,3.34,3.34,0,0,0,2.28.53,2.67,2.67,0,0,0,2-2.85,2.25,2.25,0,0,0-.82-1.4l.72-1.24a3.58,3.58,0,0,1,1.41,2.24,3.9,3.9,0,0,1-.56,2.66A4.1,4.1,0,0,1,46.79,274.81Z"/><path class="cls-5" d="M48.31,262.64l5.83-.15.24.14-.72,1.23-4.94.06,0,.08.58,2.16,2.28,1.33-.7,1.21-7.29-4.26.7-1.2,3.37,2,.05-.09-1.47-5.2.81-1.39.23.14Z"/><path class="cls-5" d="M55.31,260.54a3.06,3.06,0,0,1-1.61.56,3.1,3.1,0,0,1-1.72-.46l.7-1.21a1.8,1.8,0,0,0,1.57.22,2.45,2.45,0,0,0,1.28-1.17,2.1,2.1,0,0,0,.35-1.29,1.2,1.2,0,0,0-.63-.87,1,1,0,0,0-.63-.16,1.16,1.16,0,0,0-.55.23,5.26,5.26,0,0,0-.64.56l-1.07,1a7.53,7.53,0,0,1-.82.68,2.13,2.13,0,0,1-1,.36,1.79,1.79,0,0,1-1.19-.28,1.9,1.9,0,0,1-.87-1,2.42,2.42,0,0,1-.14-1.32A4.38,4.38,0,0,1,50,253.83a2.77,2.77,0,0,1,1.35-.57,2.47,2.47,0,0,1,1.46.28L52,254.77a1.44,1.44,0,0,0-1.13,0,2.5,2.5,0,0,0-1.3,2.08.87.87,0,0,0,.45.75.73.73,0,0,0,.71.06,3.69,3.69,0,0,0,.82-.64l1.2-1.16a5.75,5.75,0,0,1,.86-.72,2.28,2.28,0,0,1,1-.34,2.08,2.08,0,0,1,1.25.34,2.49,2.49,0,0,1,1,1,2.43,2.43,0,0,1,.23,1.4,4.14,4.14,0,0,1-.57,1.59A4.41,4.41,0,0,1,55.31,260.54Z"/><line class="cls-2" x1="317.15" y1="573.02" x2="254.24" y2="717.47"/></g></g></svg>